<?xml version="1.0" standalone="no"?>
<!DOCTYPE svg PUBLIC "-//W3C//DTD SVG 20010904//EN"
 "http://www.w3.org/TR/2001/REC-SVG-20010904/DTD/svg10.dtd">
<svg version="1.0" xmlns="http://www.w3.org/2000/svg"
 width="700.000000pt" height="700.000000pt" viewBox="0 0 700.000000 700.000000"
 preserveAspectRatio="xMidYMid meet">
<metadata>
Created by potrace 1.11, written by Peter Selinger 2001-2013
</metadata>
<g transform="translate(0.000000,700.000000) scale(0.100000,-0.100000)"
fill="#000000" stroke="none">
<path d="M3643 4743 c-7 -2 -13 -11 -13 -18 0 -9 -13 -12 -45 -10 -25 1 -43
-2 -42 -8 1 -5 -4 -12 -11 -14 -8 -3 -10 1 -6 11 3 9 1 16 -5 16 -6 0 -10 -5
-8 -11 1 -6 -4 -14 -12 -17 -8 -2 -11 0 -7 6 13 22 -17 23 -40 1 -23 -22 -34
-15 -14 9 7 9 7 9 -2 2 -7 -6 -16 -6 -24 1 -8 7 -14 6 -20 -2 -4 -8 -3 -9 4
-5 12 7 17 -6 6 -17 -8 -8 -35 3 -29 12 2 4 -2 8 -10 8 -11 0 -12 -4 -4 -14 8
-9 8 -13 1 -13 -6 0 -16 8 -21 18 -6 9 -11 12 -11 6 0 -5 -18 -9 -40 -8 -24 1
-44 -4 -51 -13 -10 -11 -14 -11 -28 1 -14 13 -19 13 -36 0 -19 -14 -19 -15 8
-10 19 3 27 1 24 -7 -2 -6 -18 -12 -35 -12 -27 -1 -31 2 -27 20 3 11 2 14 -1
7 -3 -6 -10 -10 -15 -7 -5 4 -6 0 -3 -8 3 -8 -2 -14 -11 -14 -9 0 -14 6 -11
13 3 9 -1 11 -11 7 -13 -5 -15 -2 -9 13 6 15 5 16 -5 7 -10 -10 -9 -16 4 -31
26 -28 20 -39 -6 -13 l-24 22 -24 -21 c-13 -12 -18 -18 -10 -14 9 4 12 2 9 -6
-2 -7 -12 -14 -22 -16 -12 -2 -16 2 -12 12 3 9 1 12 -4 9 -6 -3 -10 -1 -10 4
0 11 -27 10 -46 -1 -6 -4 -21 -6 -32 -3 -16 3 -19 0 -15 -12 5 -12 3 -14 -8
-7 -29 18 -39 13 -23 -11 13 -19 13 -23 0 -28 -15 -6 -26 1 -26 15 0 5 6 6 13
2 7 -5 7 -1 -3 12 -22 29 -24 30 -17 12 8 -24 -4 -30 -20 -10 -13 15 -13 15
-4 -5 17 -34 12 -40 -11 -13 -19 24 -20 24 -14 3 6 -19 4 -21 -14 -18 -11 2
-27 2 -35 -1 -12 -5 -12 -8 0 -20 18 -19 31 -18 15 1 -12 15 0 22 14 8 10 -10
37 -13 31 -3 -3 5 9 7 27 5 18 -1 43 4 56 11 17 11 22 12 22 2 0 -9 3 -10 8
-2 4 6 15 10 25 8 9 -1 15 2 12 6 -3 5 -1 11 5 15 5 3 10 1 10 -4 0 -11 26
-11 45 0 6 3 25 5 43 4 17 -1 32 2 32 7 0 5 -10 7 -22 3 -20 -5 -20 -4 -6 5
11 6 15 17 11 28 -5 14 -3 14 14 -3 11 -11 18 -24 15 -30 -3 -5 2 -4 11 4 11
9 17 10 17 2 0 -6 5 -11 12 -11 9 0 9 3 0 12 -19 19 -14 33 6 16 15 -13 47
-16 121 -9 7 0 11 7 8 15 -4 10 1 13 19 11 14 -1 28 -6 32 -10 4 -4 -3 -4 -15
-1 -13 4 -23 3 -23 -2 0 -12 32 -12 48 1 7 6 12 6 12 0 0 -11 45 -11 56 0 7 6
-16 11 -41 8 -6 0 -11 8 -12 19 -2 19 -1 19 25 3 15 -9 33 -23 40 -32 6 -8 12
-10 12 -5 0 6 18 9 40 7 22 -2 40 2 40 7 0 6 5 10 11 10 5 0 8 -4 5 -9 -3 -5
17 -8 45 -7 27 2 52 -1 55 -5 2 -4 17 -4 32 1 16 4 36 4 45 -2 10 -5 17 -5 17
0 0 5 7 9 15 9 8 0 15 -5 15 -10 0 -6 3 -7 6 -4 9 9 -25 59 -35 53 -4 -3 -17
1 -27 9 -17 13 -18 14 -1 15 9 0 17 -4 17 -9 0 -6 9 -8 20 -6 13 3 18 0 14 -7
-4 -6 -3 -8 4 -4 6 3 13 2 17 -4 10 -16 28 -12 21 5 -9 26 3 16 18 -13 13 -25
13 -29 0 -29 -8 0 -14 4 -14 9 0 4 -4 8 -10 8 -5 0 -10 -6 -10 -13 0 -10 15
-14 50 -14 27 -1 47 3 44 8 -5 9 9 13 34 10 10 -2 10 2 0 18 -7 12 -17 21 -22
21 -4 0 -3 6 3 13 6 8 8 17 4 20 -3 4 2 7 13 8 10 0 13 3 7 6 -7 2 -23 -3 -35
-11 -27 -19 -44 -21 -29 -3 8 10 7 14 -4 14 -8 0 -12 -4 -10 -8 3 -4 -2 -10
-11 -13 -11 -4 -15 -2 -11 7 3 8 -1 14 -8 14 -8 0 -11 -7 -7 -15 4 -11 1 -14
-11 -9 -15 6 -16 4 -6 -16 l12 -22 -22 20 c-13 11 -39 20 -59 21 -21 1 -39 3
-41 3 -2 1 2 8 9 16 13 16 13 16 -7 8z m208 -37 c-8 -10 -9 -16 -1 -21 13 -8
5 -22 -20 -35 -16 -9 -18 -8 -13 6 4 11 2 15 -4 11 -6 -4 -18 3 -26 16 -14 21
-13 23 4 24 10 1 21 -3 24 -8 4 -5 13 -3 21 6 19 19 30 20 15 1z m-369 -5
c-11 -7 -10 -10 3 -15 9 -3 21 -4 26 0 5 3 12 -2 15 -10 3 -9 10 -13 15 -10 5
3 7 9 4 14 -6 9 12 23 33 26 9 2 11 -5 7 -19 -5 -19 -4 -19 9 3 9 14 15 19 16
11 0 -10 3 -11 14 -2 11 9 22 6 52 -14 21 -14 40 -27 41 -29 1 -1 -18 -3 -42
-3 -25 -1 -45 3 -45 8 0 6 4 8 8 5 4 -2 14 -1 21 3 9 6 10 11 2 15 -6 4 -11 2
-11 -5 0 -8 -5 -7 -17 2 -10 8 -14 9 -10 2 4 -6 3 -14 -3 -18 -6 -4 -7 -11 -4
-17 4 -7 2 -8 -5 -4 -6 4 -9 11 -6 16 3 5 -4 8 -15 7 -11 -1 -20 -5 -20 -9 0
-9 -25 -5 -53 7 -9 4 -23 2 -31 -4 -16 -13 -26 -5 -20 17 4 11 1 10 -8 -3 -15
-23 -43 -26 -73 -6 -15 9 -15 11 -3 7 10 -3 20 -1 24 5 4 7 10 6 18 0 10 -8
18 -5 31 9 10 11 23 20 29 20 6 0 5 -4 -2 -9z m-160 -25 c13 -20 -3 -26 -28
-10 -15 10 -24 12 -24 5 0 -6 -4 -10 -9 -8 -5 1 -9 -2 -9 -7 0 -16 -26 -26
-34 -13 -6 9 -8 9 -8 1 0 -12 -64 -13 -75 -2 -3 3 9 4 27 3 18 -1 39 3 46 8 6
5 12 6 12 1 0 -5 6 1 14 12 16 22 76 29 88 10z m-341 -58 c7 -12 5 -16 -8 -14
-9 2 -19 8 -21 14 -2 8 -11 3 -23 -10 -13 -17 -18 -19 -19 -8 0 13 -1 13 -10
0 -11 -17 -13 -10 -4 14 3 8 12 12 19 10 7 -3 16 -1 19 4 9 15 37 8 47 -10z
m-103 -23 c-3 -3 -9 2 -12 12 -6 14 -5 15 5 6 7 -7 10 -15 7 -18z"/>
<path d="M3798 4693 c6 -2 9 -10 6 -15 -4 -6 -2 -8 4 -4 6 3 13 2 17 -4 4 -6
11 -8 16 -4 5 3 7 10 3 15 -3 5 -9 7 -14 4 -5 -3 -11 -1 -15 5 -3 5 -12 10
-18 9 -9 0 -8 -2 1 -6z"/>
<path d="M3553 4675 c0 -8 4 -12 9 -9 4 3 8 9 8 15 0 5 -4 9 -8 9 -5 0 -9 -7
-9 -15z"/>
<path d="M3406 4672 c-3 -5 1 -9 9 -9 8 0 12 4 9 9 -3 4 -7 8 -9 8 -2 0 -6 -4
-9 -8z"/>
<path d="M3905 4730 c-3 -5 -3 -10 2 -11 4 0 -3 -5 -16 -10 -22 -9 -22 -10 -7
-33 13 -20 13 -26 2 -36 -10 -7 -16 -8 -19 0 -3 6 -4 5 -3 -2 3 -15 93 -20
102 -6 3 5 1 15 -5 21 -8 8 -11 6 -12 -8 0 -11 -3 -14 -6 -8 -3 9 -10 10 -24
3 -13 -7 -19 -7 -19 0 0 5 7 10 15 10 8 0 15 5 15 11 0 5 -4 8 -9 5 -4 -3 -16
3 -26 13 -16 19 -16 19 2 16 10 -2 20 -4 23 -5 3 -1 9 -2 13 -1 5 1 5 -4 1
-10 -5 -8 -3 -9 6 -4 9 5 11 4 6 -3 -5 -8 -2 -10 8 -6 9 3 16 1 16 -6 0 -6 4
-8 10 -5 6 4 7 -1 3 -11 -4 -11 -3 -15 5 -10 6 3 14 1 18 -5 4 -8 3 -9 -4 -5
-7 4 -12 2 -12 -3 0 -6 9 -11 20 -11 24 0 26 13 5 30 -8 7 -12 16 -9 21 3 5
-4 9 -14 9 -11 0 -22 7 -26 15 -4 13 -2 14 14 5 11 -6 26 -8 32 -4 7 5 8 2 3
-7 -6 -11 -5 -12 6 -1 7 6 17 12 22 12 4 0 5 -6 1 -12 -5 -8 0 -7 11 2 16 13
18 13 13 0 -3 -9 -15 -14 -28 -12 -18 2 -20 -1 -11 -11 6 -8 8 -17 4 -20 -3
-4 -1 -7 6 -7 7 0 11 -6 8 -13 -3 -9 4 -12 26 -11 18 1 36 -1 42 -4 11 -7 18
-8 85 -18 52 -7 66 -10 101 -19 17 -4 30 -2 35 6 5 9 2 10 -9 6 -10 -3 -17 -2
-17 4 0 6 8 9 18 7 9 -2 16 -11 14 -20 -1 -10 7 -17 25 -21 16 -3 39 -8 53
-12 14 -3 34 -7 45 -8 11 -1 26 -8 34 -15 7 -7 20 -11 27 -8 8 3 14 1 14 -3 0
-5 13 -14 29 -19 22 -8 32 -7 40 2 6 7 7 17 3 21 -4 5 -1 5 6 0 10 -5 11 -10
3 -18 -15 -15 -14 -27 2 -27 6 0 34 -12 60 -26 27 -14 55 -23 63 -20 7 3 16 0
20 -6 4 -7 3 -8 -4 -4 -7 4 -12 4 -12 1 0 -3 15 -12 32 -20 25 -10 35 -10 41
-2 6 8 7 6 4 -5 -6 -17 35 -51 60 -51 7 0 15 -7 18 -15 3 -8 12 -11 21 -8 8 3
13 2 10 -3 -3 -5 7 -17 23 -28 46 -29 124 -106 166 -164 149 -202 139 -427
-28 -634 -38 -47 -64 -75 -154 -169 -93 -97 -382 -253 -616 -335 -176 -61
-416 -117 -581 -136 -67 -8 -68 -15 8 90 28 39 69 96 91 128 25 38 53 65 77
77 21 10 36 15 33 10 -3 -4 11 -3 30 3 19 6 35 14 35 19 0 5 4 7 9 4 5 -3 30
1 57 8 27 8 68 20 92 26 23 6 40 15 37 20 -3 6 1 7 9 4 15 -6 41 4 166 63 150
70 289 194 343 306 80 164 20 355 -152 491 -159 124 -418 215 -691 241 -125
12 -149 14 -235 14 l-91 1 -33 55 c-36 60 -41 60 -75 -8 -25 -49 -34 -53 -131
-61 -90 -8 -117 -11 -230 -31 -353 -61 -705 -178 -972 -322 -76 -40 -263 -163
-291 -190 -9 -10 -37 -34 -60 -53 -23 -19 -42 -38 -42 -43 0 -5 21 10 47 32
61 54 68 45 8 -11 -53 -49 -65 -55 -65 -36 0 7 -12 -1 -28 -17 -45 -50 -104
-126 -101 -129 2 -2 27 25 54 59 46 59 75 85 75 67 0 -4 -19 -27 -41 -52 -47
-52 -112 -149 -112 -167 0 -7 -3 -10 -7 -8 -7 5 -37 -75 -32 -87 1 -5 -3 -8
-9 -8 -6 0 -9 -6 -6 -14 3 -8 1 -17 -6 -19 -9 -3 -9 -10 1 -27 10 -16 10 -20
1 -14 -9 5 -10 2 -6 -9 3 -10 2 -17 -3 -17 -5 0 -10 8 -12 18 -3 12 -6 9 -10
-10 -4 -22 -1 -28 11 -28 13 0 17 -10 16 -47 0 -27 3 -51 8 -54 5 -3 2 -9 -7
-12 -13 -5 -16 3 -16 49 0 30 -4 53 -8 50 -10 -6 -6 -71 9 -143 13 -65 24 -70
15 -8 -5 27 -3 45 2 45 6 0 8 -10 5 -22 -4 -19 -3 -20 6 -8 9 12 10 9 5 -12
-3 -14 0 -36 7 -50 7 -12 12 -29 10 -37 -1 -8 2 -10 10 -5 8 4 10 3 5 -4 -4
-6 -14 -8 -23 -5 -13 5 -13 2 3 -23 27 -41 40 -54 50 -46 5 4 3 0 -4 -10 -11
-14 -9 -19 10 -32 12 -9 19 -16 14 -16 -5 0 -3 -7 4 -15 9 -11 16 -12 26 -4
10 8 12 6 9 -10 -2 -12 0 -19 5 -16 9 6 26 -9 50 -44 8 -11 20 -21 26 -21 7 0
14 -6 17 -14 3 -7 32 -31 65 -53 33 -22 58 -34 55 -26 -5 13 -2 13 16 4 12 -7
19 -16 16 -20 -2 -5 3 -15 12 -22 14 -12 16 -12 9 0 -6 9 -5 12 5 9 8 -3 13
-11 11 -17 -1 -7 2 -10 8 -6 5 3 10 1 10 -5 0 -6 4 -9 9 -6 5 3 11 -1 15 -9 3
-8 12 -15 19 -15 8 0 20 -7 27 -15 7 -8 16 -12 22 -9 5 3 15 0 23 -6 8 -7 15
-9 15 -5 0 4 7 2 15 -5 8 -7 15 -9 15 -4 0 5 5 2 10 -6 7 -11 10 -12 10 -2 0
10 4 9 16 -2 8 -9 21 -13 27 -9 9 5 -13 19 -45 28 -5 2 -11 4 -15 5 -5 1 -11
2 -15 1 -5 0 -8 4 -8 10 0 6 -7 9 -15 5 -8 -3 -15 -2 -15 3 0 4 -12 14 -27 22
-38 19 -51 23 -33 10 11 -8 11 -11 2 -11 -7 0 -15 7 -18 15 -4 8 -13 15 -21
15 -8 0 -11 5 -8 10 4 6 2 9 -3 8 -5 -2 -45 23 -88 56 -43 32 -68 46 -55 32
25 -27 14 -37 -12 -11 -8 8 -18 11 -22 7 -5 -4 -5 3 -2 16 5 20 3 21 -11 10
-13 -11 -15 -10 -10 10 4 12 2 20 -2 17 -17 -10 -42 8 -37 27 5 16 3 17 -9 7
-11 -9 -14 -8 -14 5 0 9 -4 16 -8 16 -5 0 -28 29 -51 65 -22 36 -44 65 -47 65
-3 0 -2 -5 2 -12 5 -7 3 -8 -5 -3 -8 4 -9 11 -3 17 6 6 2 24 -10 50 -11 22
-21 50 -24 62 -2 11 -7 35 -10 51 -10 45 -10 205 0 205 4 0 6 9 3 20 -3 11 -1
20 4 20 5 0 9 7 9 15 0 27 60 139 110 205 26 36 77 92 112 126 62 59 192 164
203 164 3 0 32 17 63 38 135 91 462 239 498 225 12 -4 15 -3 10 5 -7 11 7 16
42 15 6 -1 12 4 12 9 0 6 7 8 15 4 8 -3 15 -2 15 3 0 14 42 21 59 10 12 -8 10
-8 -8 -3 -18 4 -22 3 -16 -7 6 -9 3 -11 -8 -6 -10 4 -17 2 -17 -4 0 -6 -7 -9
-15 -5 -8 3 -15 2 -15 -2 0 -11 -101 -43 -112 -36 -4 3 -8 0 -8 -6 0 -7 -7 -9
-17 -6 -10 4 -14 4 -10 0 4 -4 -32 -24 -80 -44 -142 -60 -322 -164 -473 -274
-71 -52 -176 -156 -227 -226 -45 -61 -88 -140 -76 -140 5 0 3 -4 -3 -8 -31
-21 -63 -212 -40 -241 8 -11 8 -13 0 -8 -9 5 -10 -3 -4 -28 4 -19 5 -36 2 -39
-3 -4 -1 -6 5 -6 6 0 10 -8 9 -17 -1 -35 25 -92 40 -86 8 3 14 -1 14 -10 0
-33 80 -133 96 -119 4 4 4 1 0 -6 -9 -16 38 -67 53 -57 7 3 8 0 5 -9 -4 -11 0
-16 10 -16 9 0 16 -8 17 -17 0 -12 4 -8 11 9 9 26 11 26 31 13 12 -8 27 -14
32 -15 6 0 10 -5 10 -11 0 -13 45 -48 63 -49 11 0 19 -20 7 -20 -12 0 -55 24
-55 32 0 4 -3 7 -7 6 -5 -2 -9 1 -10 5 -2 9 -48 47 -57 47 -3 0 -6 -9 -6 -20
0 -11 4 -20 8 -20 5 0 18 -9 30 -20 12 -12 22 -18 22 -14 0 4 12 -3 27 -17 14
-13 23 -17 19 -9 -4 8 -1 7 8 -4 13 -16 42 -14 32 3 -3 4 -1 13 5 21 7 13 9
12 9 -2 0 -18 53 -52 64 -41 3 4 6 1 6 -6 0 -8 8 -10 23 -7 12 3 16 3 9 0 -15
-7 -6 -24 14 -24 8 0 12 4 9 10 -3 6 -1 10 5 10 7 0 10 -7 6 -15 -4 -11 2 -14
24 -11 22 2 27 0 22 -12 -4 -11 -2 -13 8 -7 9 6 11 4 5 -5 -6 -10 -4 -12 8 -7
9 3 23 0 31 -8 11 -11 16 -12 19 -2 3 6 6 3 6 -7 1 -11 4 -16 7 -13 4 3 15 2
26 -4 14 -7 23 -7 33 1 20 16 40 3 24 -16 -7 -8 -7 -14 -1 -14 5 0 16 10 24
22 11 17 16 19 23 8 5 -8 4 -11 -2 -7 -12 7 -25 -17 -16 -27 10 -10 25 -7 18
4 -10 15 0 12 24 -9 14 -12 32 -18 47 -15 16 3 23 1 19 -6 -3 -5 1 -10 9 -10
8 0 18 5 21 10 10 16 22 12 28 -9 3 -11 16 -20 35 -23 17 -2 29 -1 26 4 -3 4
0 8 5 8 6 0 11 -5 11 -10 0 -6 3 -9 8 -8 4 2 7 -1 7 -7 0 -5 -3 -9 -6 -8 -3 1
-25 3 -48 4 -22 2 -41 7 -41 13 0 5 -3 6 -6 3 -4 -3 -14 -2 -23 2 -9 5 -30 11
-47 14 -17 3 -41 10 -53 16 -14 8 -21 8 -21 1 0 -12 48 -32 60 -25 5 3 11 1
15 -5 4 -6 11 -7 17 -4 6 4 13 2 17 -5 4 -6 19 -12 34 -13 15 -1 27 -5 27 -8
0 -4 43 -9 103 -11 9 0 15 -4 13 -8 -3 -4 1 -8 9 -8 8 0 15 4 15 8 0 10 -30
20 -41 13 -5 -3 -9 0 -9 5 0 6 6 11 13 11 6 1 1 10 -12 20 -13 11 -19 20 -14
20 5 0 19 -9 30 -19 20 -19 73 -35 118 -36 13 0 19 6 17 17 -1 9 2 19 8 23 7
4 9 -3 6 -19 -3 -18 0 -26 10 -27 8 -1 20 -2 27 -3 22 -4 28 6 11 18 -13 10
-14 15 -4 21 9 6 11 4 5 -5 -6 -10 -4 -12 9 -7 9 4 15 3 12 -2 -3 -5 1 -12 10
-15 12 -5 15 -2 10 11 -6 15 -5 15 13 -1 19 -18 20 -17 18 3 -1 14 -8 21 -22
22 -11 0 -29 2 -40 5 -11 2 -37 6 -57 8 -21 3 -42 7 -47 10 -13 8 -82 20 -113
19 -16 0 -25 4 -21 10 4 6 -2 8 -15 5 -12 -3 -22 -2 -24 2 -2 5 -14 11 -28 13
-14 3 -32 7 -40 9 -9 2 -14 -3 -12 -14 3 -21 -10 -29 -28 -16 -12 8 -12 9 2 4
14 -4 17 0 15 16 -4 23 -42 43 -52 28 -4 -6 -12 -10 -18 -10 -8 0 -8 3 1 9 17
11 -11 36 -32 28 -8 -3 -16 -2 -18 2 -2 4 -43 27 -93 52 -49 24 -112 59 -140
77 -27 18 -56 30 -63 27 -7 -3 -10 -1 -7 4 6 10 -82 78 -96 73 -5 -1 -8 4 -7
10 2 7 -3 12 -9 10 -7 -1 -13 3 -13 9 0 6 -17 28 -38 49 -70 73 -111 146 -137
247 -29 108 -6 247 56 350 30 51 110 152 145 184 16 15 41 43 56 62 32 41 183
145 308 211 177 93 429 182 655 231 128 28 325 58 332 51 4 -3 -136 -247 -151
-263 -2 -2 -236 -72 -351 -104 -334 -95 -591 -319 -601 -525 -6 -137 69 -277
201 -373 208 -152 489 -229 895 -246 58 -2 106 -8 108 -13 1 -5 17 -28 34 -52
l32 -43 26 33 c61 79 62 80 125 85 80 8 339 51 445 74 102 23 357 96 403 115
17 8 59 25 92 37 177 66 379 176 535 292 66 49 224 197 217 204 -2 2 -35 -28
-73 -65 -222 -221 -593 -413 -1024 -531 -171 -47 -375 -86 -500 -95 l-65 -5
65 10 c260 40 393 69 585 126 296 87 589 230 796 389 98 75 259 243 259 272 0
6 4 12 8 12 13 0 62 102 55 113 -3 6 -1 7 4 4 6 -4 16 13 23 41 7 26 15 54 17
62 5 18 5 21 3 93 -2 31 -7 60 -12 63 -5 3 -4 12 3 20 7 9 8 14 1 14 -6 0 -9
9 -7 20 2 11 -1 22 -6 26 -6 3 -3 11 8 19 15 11 16 16 4 41 -26 59 -83 155
-88 150 -3 -3 0 -12 7 -21 7 -8 8 -15 3 -15 -13 0 -35 43 -31 60 2 8 -3 15 -9
16 -7 1 -17 2 -23 3 -5 0 -10 6 -10 12 0 5 5 7 12 3 7 -4 8 -3 4 5 -4 6 -11 9
-16 6 -5 -3 -27 14 -49 37 -30 32 -39 38 -37 23 2 -11 14 -26 27 -32 13 -7 21
-13 17 -13 -12 0 46 -60 59 -60 7 0 13 -5 13 -11 0 -5 -5 -7 -12 -3 -6 4 0 -8
13 -27 14 -19 32 -47 40 -64 7 -16 21 -36 29 -43 10 -9 10 -11 2 -7 -12 6 -12
3 -1 -16 19 -37 30 -95 34 -193 4 -76 1 -101 -20 -160 -13 -38 -21 -74 -18
-79 3 -6 1 -7 -5 -3 -6 3 -13 -3 -17 -14 -8 -25 -67 -112 -119 -173 -55 -66
-182 -172 -292 -245 -108 -71 -324 -184 -358 -186 -13 0 -22 -4 -20 -7 5 -8
-154 -71 -183 -73 -13 0 -23 -4 -23 -7 0 -13 -72 -27 -93 -18 -19 8 -18 9 6 4
20 -4 27 -2 22 6 -5 8 -1 9 15 4 15 -5 20 -3 16 3 -8 14 26 24 49 16 13 -5 16
-4 11 4 -4 7 -1 13 8 13 24 2 28 3 76 25 25 11 65 29 90 40 194 82 475 262
595 381 75 75 132 147 133 167 0 5 4 12 9 15 11 7 56 101 72 151 16 52 20 113
7 129 -9 12 -8 13 3 7 10 -7 12 0 8 35 -3 24 -6 52 -6 62 -1 10 -5 16 -9 13
-5 -3 -7 8 -4 23 2 16 -2 34 -12 43 -8 9 -13 18 -10 21 3 2 -2 20 -10 38 -9
19 -13 23 -10 10 4 -17 2 -22 -7 -19 -8 3 -14 9 -15 14 -1 22 -28 63 -37 57
-6 -3 -7 -2 -4 4 10 15 -58 87 -73 78 -9 -6 -11 -4 -5 5 8 13 -91 113 -105
105 -4 -3 -10 1 -13 9 -5 12 -77 61 -77 51 0 -16 14 -34 23 -28 6 3 7 1 3 -5
-7 -12 27 -35 38 -25 3 3 6 -2 6 -11 0 -12 5 -16 16 -12 9 4 13 2 8 -5 -4 -7
1 -9 17 -5 13 3 18 3 12 0 -7 -3 -13 -10 -13 -15 0 -6 5 -7 10 -4 6 3 10 -1
10 -10 0 -9 5 -13 10 -10 6 4 9 2 8 -3 -2 -5 16 -28 40 -52 40 -40 57 -65 29
-41 -8 6 -18 7 -22 3 -5 -4 -5 -2 -2 4 8 14 -26 47 -37 37 -4 -5 -6 -1 -4 7 2
9 -4 14 -14 14 -11 -1 -14 4 -11 14 4 10 2 13 -6 8 -7 -5 -10 -2 -9 6 2 7 -3
12 -9 11 -7 -2 -12 3 -10 10 1 6 -4 11 -10 10 -7 -2 -13 2 -13 8 0 8 -5 7 -15
-1 -11 -9 -19 -10 -26 -3 -8 8 -7 11 4 10 9 -1 16 3 16 8 0 6 -7 9 -14 9 -8
-1 -12 3 -9 8 3 5 -4 12 -16 15 -12 3 -19 11 -16 19 3 8 0 11 -8 8 -8 -3 -17
-1 -20 5 -4 6 -14 7 -23 4 -10 -4 -14 -2 -10 4 4 5 -6 16 -21 23 -23 11 -24
14 -9 18 10 2 25 -5 32 -15 8 -10 15 -14 15 -10 0 5 8 1 17 -9 13 -12 18 -13
21 -4 4 12 -14 28 -32 28 -5 0 -12 5 -15 10 -3 5 -35 24 -71 41 -36 18 -77 38
-92 46 -25 12 -28 12 -28 -1 0 -8 5 -12 10 -9 6 3 10 1 10 -5 0 -6 5 -8 10 -5
6 3 10 1 10 -5 0 -11 -40 -7 -62 6 -8 5 -9 2 -5 -10 4 -10 3 -15 -3 -11 -6 3
-10 1 -10 -6 0 -7 -3 -10 -6 -7 -3 4 -1 16 6 27 6 12 7 21 1 21 -5 0 -12 -6
-14 -12 -3 -8 -6 -5 -6 5 -1 14 -6 17 -22 12 -15 -5 -19 -4 -15 4 6 10 -20 16
-46 12 -5 0 -8 3 -8 8 0 4 -21 14 -47 21 -27 6 -54 14 -61 16 -7 2 -11 0 -8
-4 2 -4 0 -14 -5 -22 -9 -13 -10 -13 -8 0 3 34 -1 42 -21 37 -11 -3 -20 -2
-20 3 0 4 -11 10 -25 12 -13 3 -22 2 -20 -2 7 -11 -22 -21 -40 -14 -8 4 -15
11 -15 17 0 7 4 7 12 -1 15 -15 28 -15 28 -1 0 5 -4 8 -9 4 -5 -3 -12 -1 -16
5 -3 5 -15 10 -27 10 -18 0 -19 -2 -7 -17 13 -15 12 -15 -9 -2 -21 13 -25 12
-38 -5 -8 -11 -14 -15 -14 -9 0 7 5 15 10 18 6 3 10 12 10 18 -1 7 -10 1 -20
-12 -11 -13 -20 -19 -20 -14 0 5 5 14 12 21 7 7 8 12 2 12 -6 0 -11 7 -11 15
0 17 13 20 22 4 4 -6 14 -8 22 -5 11 5 13 2 9 -11 -6 -14 -4 -15 5 -6 14 14 2
36 -17 29 -7 -3 -16 -1 -19 4 -3 5 -13 9 -23 9 -19 -1 -77 8 -77 12 0 1 -13 3
-30 4 -16 2 -34 3 -39 4 -5 1 -2 9 5 19 13 16 12 16 -4 2 -23 -17 -57 -24 -57
-11 0 5 8 12 18 14 9 2 5 3 -10 1 -15 -2 -28 0 -31 4 -2 4 -2 2 -1 -5 3 -14
-23 -25 -31 -13 -4 6 -1 10 4 10 6 0 11 4 11 8 0 5 -7 9 -15 9 -8 0 -12 -4 -9
-9 3 -4 -2 -8 -11 -8 -9 0 -13 5 -10 10 3 6 1 10 -5 10 -7 0 -10 -7 -7 -14 4
-10 1 -13 -8 -9 -8 3 -12 10 -8 16 3 6 1 7 -5 3 -7 -4 -12 -2 -12 5 0 7 -3 10
-6 7 -3 -4 2 -19 12 -35 l18 -28 -27 24 c-14 13 -24 28 -21 32 3 5 3 9 0 9 -3
0 -8 -4 -11 -10z m190 -50 c-3 -5 -1 -10 4 -10 6 0 11 5 11 11 0 6 8 3 17 -7
11 -11 18 -13 21 -5 2 6 8 11 13 11 6 0 7 -4 4 -10 -3 -5 1 -10 10 -10 10 0
14 5 9 13 -5 9 -4 9 6 0 7 -6 19 -9 26 -6 8 3 14 0 14 -6 0 -6 3 -10 8 -10 34
6 39 -22 8 -48 -20 -17 -20 -17 -6 1 14 18 13 19 -2 13 -10 -4 -18 -2 -18 4 0
7 9 9 21 6 13 -3 18 -2 13 3 -9 9 -30 13 -52 11 -9 -1 -8 -8 4 -28 l16 -28
-21 24 c-11 12 -19 27 -16 31 2 4 -6 8 -20 8 -15 0 -27 -8 -30 -19 -4 -11 -11
-19 -17 -19 -6 0 -5 6 2 15 9 11 10 19 3 26 -8 8 -13 7 -18 -2 -6 -8 -4 -10 6
-4 12 8 12 6 0 -8 -16 -20 -32 -22 -48 -6 -8 8 -5 18 10 35 21 24 33 32 22 14z
m85 -72 c11 -22 11 -23 -5 -3 -14 17 -17 18 -25 5 -5 -8 -10 -10 -10 -4 0 30
26 31 40 2z m267 -29 c-9 -6 -15 -14 -12 -20 3 -5 -1 -6 -10 -3 -14 6 -14 8 2
20 10 7 23 13 28 13 6 0 2 -4 -8 -10z m17 -24 c-4 -8 -8 -15 -10 -15 -2 0 -4
7 -4 15 0 8 4 15 10 15 5 0 7 -7 4 -15z m95 -12 c-6 -7 -15 -10 -20 -7 -13 8
-3 21 15 21 12 0 13 -4 5 -14z m51 -1 c0 -4 -9 -8 -20 -9 -11 -1 -18 2 -15 8
7 11 35 12 35 1z m35 -31 c-6 -5 -25 10 -25 20 0 5 6 4 14 -3 8 -7 12 -15 11
-17z m-115 13 c0 -8 -19 -13 -24 -6 -3 5 1 9 9 9 8 0 15 -2 15 -3z m45 -32
c-3 -3 -11 0 -18 7 -9 10 -8 11 6 5 10 -3 15 -9 12 -12z m117 0 c-7 -2 -10 -7
-7 -12 3 -5 -3 -7 -12 -6 -9 2 -19 9 -21 17 -3 11 -1 11 7 -1 10 -13 15 -8 12
12 0 4 7 4 16 1 11 -4 13 -8 5 -11z m168 -13 c0 -6 7 -8 16 -5 8 3 12 2 9 -3
-5 -10 33 -27 49 -22 5 1 4 -5 -3 -13 -7 -8 -9 -21 -5 -27 4 -8 3 -9 -4 -5 -7
4 -12 15 -12 24 0 15 -2 15 -10 2 -8 -13 -10 -12 -10 3 0 9 -7 18 -15 18 -28
3 -33 4 -40 11 -9 8 3 28 16 28 5 0 9 -5 9 -11z m-141 -23 c9 -11 9 -16 -1
-22 -7 -4 -10 -4 -6 1 4 4 3 14 -3 22 -6 7 -9 13 -6 13 2 0 10 -6 16 -14z
m111 -18 c0 -4 -4 -8 -9 -8 -6 0 -12 4 -15 8 -3 5 1 9 9 9 8 0 15 -4 15 -9z
m100 -78 c0 -5 -5 -10 -11 -10 -5 0 -7 5 -4 10 3 6 8 10 11 10 2 0 4 -4 4 -10z
m70 4 c0 -8 -19 -13 -24 -6 -3 5 1 9 9 9 8 0 15 -2 15 -3z m28 -49 c-3 -3 -9
2 -12 12 -6 14 -5 15 5 6 7 -7 10 -15 7 -18z m-1404 4 c3 -3 -4 -5 -14 -6 -11
-1 -22 2 -24 6 -5 8 30 8 38 0z m36 1 c0 -5 -5 -10 -11 -10 -5 0 -7 5 -4 10 3
6 8 10 11 10 2 0 4 -4 4 -10z m-260 -10 c-8 -5 -37 -9 -65 -8 l-50 1 55 7 c30
4 60 7 65 8 6 1 3 -3 -5 -8z m464 0 c131 -15 153 -19 246 -41 409 -97 646
-304 632 -554 -3 -40 -37 -124 -66 -160 -9 -11 -2 8 15 42 166 339 -257 668
-911 709 -58 4 -107 8 -109 10 -8 8 105 4 193 -6z m-589 -9 c-10 -10 -144 -27
-135 -18 3 3 32 9 65 12 33 4 62 9 64 11 2 2 7 4 10 4 3 0 1 -4 -4 -9z m-150
-20 c-6 -5 -23 -11 -40 -14 -16 -3 -59 -10 -94 -17 -34 -6 -65 -9 -68 -7 -3 4
54 16 162 34 17 3 32 7 34 9 2 2 7 4 10 4 3 0 1 -4 -4 -9z m523 2 c-10 -2 -26
-2 -35 0 -10 3 -2 5 17 5 19 0 27 -2 18 -5z m49 1 c-3 -3 -12 -4 -19 -1 -8 3
-5 6 6 6 11 1 17 -2 13 -5z m128 -9 c6 -2 -11 -4 -37 -4 -27 -1 -48 3 -48 7 0
7 62 5 85 -3z m-482 -2 c-7 -2 -21 -2 -30 0 -10 3 -4 5 12 5 17 0 24 -2 18 -5z
m-85 -10 c-10 -2 -26 -2 -35 0 -10 3 -2 5 17 5 19 0 27 -2 18 -5z m835 -35
c65 -16 157 -46 204 -65 309 -129 445 -353 345 -565 -18 -36 -39 -72 -49 -79
-9 -8 -5 3 10 26 33 50 56 136 51 195 -19 242 -304 439 -744 516 l-75 13 70
-5 c39 -4 123 -19 188 -36z m-910 25 c-7 -2 -21 -2 -30 0 -10 3 -4 5 12 5 17
0 24 -2 18 -5z m-60 -10 c-7 -2 -19 -2 -25 0 -7 3 -2 5 12 5 14 0 19 -2 13 -5z
m-277 -24 c-38 -11 -74 -18 -80 -16 -13 4 99 35 129 35 11 0 -11 -8 -49 -19z
m211 15 c-3 -3 -12 -4 -19 -1 -8 3 -5 6 6 6 11 1 17 -2 13 -5z m-50 -10 c-3
-3 -12 -4 -19 -1 -8 3 -5 6 6 6 11 1 17 -2 13 -5z m-44 -11 c-7 -2 -19 -2 -25
0 -7 3 -2 5 12 5 14 0 19 -2 13 -5z m-50 -10 c-7 -2 -21 -2 -30 0 -10 3 -4 5
12 5 17 0 24 -2 18 -5z m-253 -34 c-166 -53 -281 -98 -437 -174 -150 -72 -179
-90 -316 -188 -37 -27 -70 -47 -73 -44 -15 15 227 168 391 246 179 86 454 187
515 189 8 0 -28 -13 -80 -29z m192 24 c-6 -2 -10 -9 -6 -14 3 -5 0 -9 -5 -9
-12 0 -14 13 -4 23 3 4 11 7 17 6 6 0 5 -3 -2 -6z m983 -9 c231 -25 471 -117
589 -225 153 -140 164 -318 28 -465 -20 -21 -35 -43 -33 -49 1 -5 -1 -7 -5 -2
-10 10 -45 -23 -37 -36 3 -6 1 -7 -6 -3 -6 4 -28 -6 -50 -23 -21 -17 -44 -31
-50 -31 -6 0 -11 -4 -11 -9 0 -5 -11 -12 -25 -15 -14 -4 -25 -11 -25 -17 0 -6
-4 -7 -10 -4 -5 3 -10 2 -10 -4 0 -5 -10 -11 -22 -13 -13 -2 -22 -9 -21 -15 1
-6 -6 -9 -16 -6 -11 3 -22 -4 -29 -19 -7 -13 -10 -15 -8 -5 3 9 1 17 -4 17 -6
0 -10 -8 -10 -17 0 -13 -2 -15 -8 -5 -7 10 -17 9 -51 -6 -32 -15 -39 -21 -28
-30 10 -8 16 -6 25 9 7 10 20 19 30 18 13 0 14 -2 2 -6 -8 -3 -22 -14 -30 -24
-14 -17 -16 -17 -37 0 l-22 18 55 77 c29 42 51 76 48 76 -3 0 -86 -47 -183
-104 -215 -126 -219 -128 -231 -121 -6 4 -9 1 -8 -6 2 -6 -3 -14 -11 -17 -8
-2 -11 0 -8 5 3 5 0 10 -8 10 -8 0 -12 -4 -9 -9 8 -13 -29 -6 -38 7 -4 5 -6 0
-5 -12 1 -14 5 -19 12 -13 6 5 17 5 25 0 8 -6 13 -10 10 -10 -3 0 -20 -4 -38
-9 -22 -7 -30 -6 -26 1 4 7 0 7 -12 1 -11 -5 -30 -8 -44 -7 -14 1 -31 -3 -39
-10 -12 -8 -13 -8 -7 2 5 8 0 12 -16 12 -14 0 -33 7 -44 16 -17 14 -17 15 -1
10 11 -4 16 -2 12 5 -4 6 -14 8 -22 5 -8 -3 -102 46 -219 114 -112 66 -211
123 -219 126 -9 4 58 -97 148 -222 89 -126 177 -250 195 -276 l33 -48 -38 0
c-21 0 -83 7 -137 15 -352 53 -578 170 -663 343 -57 117 -29 239 83 355 30 32
52 62 49 66 -3 5 5 7 17 3 17 -4 20 -2 15 12 -4 9 -3 15 2 12 10 -7 91 43 91
55 0 5 7 5 17 2 11 -4 14 -3 9 5 -4 7 -2 13 3 13 21 3 26 5 84 32 32 14 56 31
53 36 -4 5 -1 13 5 17 7 4 9 3 5 -4 -3 -6 -2 -13 4 -17 5 -3 10 -1 10 5 0 6 5
8 10 5 6 -4 17 -2 24 4 12 10 43 18 74 20 6 1 12 6 12 11 0 7 -8 6 -22 -1 -21
-11 -22 -11 -9 4 14 18 41 23 41 9 0 -5 7 -9 15 -9 12 0 12 3 2 15 -10 13 -9
14 13 2 24 -12 24 -11 8 5 -15 16 -22 17 -62 5 -25 -7 -43 -16 -40 -21 3 -5 3
-9 0 -9 -3 0 -9 8 -15 18 -8 15 -4 17 27 19 20 1 38 7 40 13 2 5 8 8 13 4 13
-8 50 6 44 16 -3 4 3 7 12 5 10 -2 23 -4 28 -5 6 0 1 -7 -9 -15 -10 -8 -23
-12 -27 -9 -5 3 -9 1 -9 -4 0 -16 13 -22 26 -11 7 6 -1 -13 -17 -43 -33 -58
-40 -71 -123 -206 -31 -51 -56 -96 -56 -100 0 -4 24 -21 53 -38 28 -17 153
-91 276 -164 124 -73 232 -135 240 -137 9 -2 81 35 161 83 80 47 207 122 283
167 75 45 137 86 137 91 0 6 -341 579 -409 685 l-15 23 70 -6 c38 -4 92 -9
119 -12z m-1030 -14 c13 -5 14 -9 5 -9 -8 0 -24 4 -35 9 -13 5 -14 9 -5 9 8 0
24 -4 35 -9z m-45 -10 c8 -5 11 -10 5 -10 -5 0 -17 5 -25 10 -8 5 -10 10 -5
10 6 0 17 -5 25 -10z m-30 -10 c18 -12 2 -12 -25 0 -13 6 -15 9 -5 9 8 0 22
-4 30 -9z m2567 -23 c1 -11 1 -18 0 -16 -2 2 -8 11 -15 20 -9 12 -9 16 1 16 7
0 14 -9 14 -20z m137 -12 c3 -8 0 -17 -6 -21 -7 -4 -8 -3 -4 4 4 7 3 12 -2 12
-6 0 -12 7 -15 14 -4 10 -1 13 8 10 7 -3 16 -12 19 -19z m-103 -32 c13 -16 12
-17 -3 -4 -17 13 -22 21 -14 21 2 0 10 -8 17 -17z m139 -53 c6 -23 6 -30 0
-24 -6 6 -12 20 -15 32 -2 12 -7 28 -11 35 -5 9 -4 9 5 1 6 -6 16 -25 21 -44z
m-219 13 c13 -16 12 -17 -3 -4 -10 7 -18 15 -18 17 0 8 8 3 21 -13z m79 -43
c0 -5 -2 -10 -4 -10 -3 0 -8 5 -11 10 -3 6 -1 10 4 10 6 0 11 -4 11 -10z m64
-38 c3 -5 -1 -9 -9 -9 -8 0 -12 4 -9 9 3 4 7 8 9 8 2 0 6 -4 9 -8z m-2444
-147 c-5 -7 -7 -15 -3 -18 3 -4 1 -7 -5 -7 -7 0 -12 8 -12 18 0 10 7 19 15 19
10 0 12 -4 5 -12z m-45 -15 c-27 -12 -43 -12 -25 0 8 5 22 9 30 9 10 0 8 -3
-5 -9z m-40 -19 c3 -5 -2 -17 -11 -25 -23 -24 -30 -19 -8 5 19 22 19 22 -6 15
-19 -6 -21 -5 -10 3 19 13 27 14 35 2z m-75 -26 c11 -13 10 -14 -5 -9 -14 6
-16 4 -10 -6 5 -8 4 -11 -3 -6 -6 3 -18 -1 -26 -10 -9 -8 -16 -13 -16 -9 0 3
-13 -2 -29 -11 -17 -10 -27 -22 -24 -27 3 -6 1 -7 -5 -3 -7 4 -31 -6 -54 -22
-54 -36 -76 -49 -63 -35 16 17 167 113 177 113 5 0 6 4 3 10 -3 6 1 7 9 4 9
-4 18 1 22 10 8 20 8 20 24 1z m2620 7 c0 -5 -7 -9 -15 -9 -8 0 -12 4 -9 9 3
4 9 8 15 8 5 0 9 -4 9 -8z m-3030 -225 c0 -2 -10 -12 -22 -23 l-23 -19 19 23
c18 21 26 27 26 19z m50 -11 c0 -2 -8 -10 -17 -17 -16 -13 -17 -12 -4 4 13 16
21 21 21 13z m2230 1 c0 -2 -10 -12 -22 -23 l-23 -19 19 23 c18 21 26 27 26
19z m-2275 -60 c-36 -56 -54 -161 -41 -235 38 -204 341 -407 693 -463 43 -7
82 -16 86 -19 15 -13 -165 19 -257 45 -193 55 -320 121 -417 215 -120 117
-158 239 -115 368 16 47 51 112 61 112 3 0 -1 -10 -10 -23z m-91 -61 c-35 -76
-38 -155 -10 -238 72 -215 326 -366 736 -439 69 -12 85 -17 45 -13 -160 13
-381 78 -515 152 -153 83 -240 175 -280 291 -29 88 -27 162 10 239 16 34 31
62 34 62 3 0 -6 -24 -20 -54z m2151 5 c-19 -32 -250 -169 -262 -157 -3 3 13
13 36 22 22 9 38 20 35 25 -3 5 -2 9 3 8 20 -3 40 2 58 16 27 20 129 93 133
94 2 1 1 -3 -3 -8z m-295 -168 c0 -3 -7 -11 -15 -19 -8 -9 -15 -13 -15 -10 0
3 -18 -1 -40 -10 -23 -9 -43 -14 -46 -11 -3 3 18 13 45 22 28 9 49 20 47 24
-3 4 1 8 9 8 8 0 15 -2 15 -4z m-159 -70 c13 -15 12 -15 -8 -5 -27 15 -36 15
-28 2 3 -5 2 -10 -4 -10 -16 0 -22 18 -9 23 23 10 35 7 49 -10z m-2405 -89 c1
-9 0 -13 -4 -10 -3 4 -7 14 -8 22 -1 9 0 13 4 10 3 -4 7 -14 8 -22z m1950 -17
c4 -3 -6 -11 -21 -17 -23 -9 -31 -8 -44 6 -15 15 -15 16 2 11 9 -4 17 -3 17 2
0 9 37 8 46 -2z m-1931 -67 c3 -5 1 -10 -4 -10 -6 0 -11 5 -11 10 0 6 2 10 4
10 3 0 8 -4 11 -10z m-42 -75 c-3 -9 -8 -14 -10 -11 -3 3 -2 9 2 15 9 16 15
13 8 -4z m125 -10 c-3 -3 -9 2 -12 12 -6 14 -5 15 5 6 7 -7 10 -15 7 -18z m75
-10 c-3 -9 -8 -14 -10 -11 -3 3 -2 9 2 15 9 16 15 13 8 -4z m-43 -27 c0 -6 7
-20 17 -30 9 -10 11 -18 6 -18 -6 0 -14 7 -17 16 -3 8 -9 13 -14 10 -4 -2 -8
4 -8 15 0 10 4 19 8 19 4 0 8 -5 8 -12z m2585 -8 c13 -6 15 -9 5 -9 -8 0 -22
4 -30 9 -18 12 -2 12 25 0z m-2702 -15 c-3 -9 -8 -14 -10 -11 -3 3 -2 9 2 15
9 16 15 13 8 -4z m2592 -11 c-13 -14 -19 -14 -28 -4 -9 10 -9 11 0 6 6 -3 14
-2 18 4 3 5 11 10 16 10 6 0 3 -7 -6 -16z m-2566 -22 c-5 -2 -6 -9 -2 -15 3
-7 2 -9 -2 -4 -5 4 -10 17 -12 28 -2 16 -1 18 11 7 8 -7 10 -15 5 -16z m178
13 c0 -8 -4 -12 -9 -9 -5 3 -6 10 -3 15 9 13 12 11 12 -6z m2440 9 c-3 -3 -12
-4 -19 -1 -8 3 -5 6 6 6 11 1 17 -2 13 -5z m-2467 -45 c0 -5 7 -9 16 -9 8 0
13 -4 10 -9 -4 -5 0 -11 6 -14 10 -3 10 -8 -1 -18 -8 -8 -11 -9 -8 -3 8 14
-38 58 -52 50 -7 -4 -8 -1 -5 8 6 15 34 11 34 -5z m2347 15 c-3 -3 -12 -4 -19
-1 -8 3 -5 6 6 6 11 1 17 -2 13 -5z m-44 -11 c-7 -2 -19 -2 -25 0 -7 3 -2 5
12 5 14 0 19 -2 13 -5z m-160 -30 c-7 -2 -19 -2 -25 0 -7 3 -2 5 12 5 14 0 19
-2 13 -5z m-1996 -18 c0 -8 -4 -12 -9 -9 -5 3 -6 10 -3 15 9 13 12 11 12 -6z
m1940 9 c-3 -3 -12 -4 -19 -1 -8 3 -5 6 6 6 11 1 17 -2 13 -5z m-70 -10 c-3
-3 -12 -4 -19 -1 -8 3 -5 6 6 6 11 1 17 -2 13 -5z m-614 -11 c-7 -2 -21 -2
-30 0 -10 3 -4 5 12 5 17 0 24 -2 18 -5z m98 -11 c-30 -2 -58 0 -62 5 -4 4 20
6 54 3 l62 -5 -54 -3z m416 12 c-3 -3 -12 -4 -19 -1 -8 3 -5 6 6 6 11 1 17 -2
13 -5z m-1772 -24 c3 -5 1 -10 -4 -10 -6 0 -11 5 -11 10 0 6 2 10 4 10 3 0 8
-4 11 -10z m45 0 c0 -5 -5 -10 -11 -10 -5 0 -7 5 -4 10 3 6 8 10 11 10 2 0 4
-4 4 -10z m1280 -20 c0 -5 -8 -7 -17 -5 -10 2 -37 4 -60 4 -24 1 -43 4 -43 9
0 4 27 5 60 4 33 -2 60 -7 60 -12z m415 10 c3 -5 1 -10 -4 -10 -6 0 -11 5 -11
10 0 6 2 10 4 10 3 0 8 -4 11 -10z m-32 -7 c-7 -2 -21 -2 -30 0 -10 3 -4 5 12
5 17 0 24 -2 18 -5z m-1665 -28 c-3 -3 -9 2 -12 12 -6 14 -5 15 5 6 7 -7 10
-15 7 -18z m1400 18 c-21 -2 -55 -2 -75 0 -21 2 -4 4 37 4 41 0 58 -2 38 -4z
m-1513 -53 c3 -5 2 -10 -4 -10 -5 0 -13 5 -16 10 -3 6 -2 10 4 10 5 0 13 -4
16 -10z m235 -24 c-7 -7 -13 -7 -20 0 -6 6 -3 10 10 10 13 0 16 -4 10 -10z
m131 -29 c-10 -9 -11 -8 -5 6 3 10 9 15 12 12 3 -3 0 -11 -7 -18z m39 -1 c0
-2 -8 -10 -17 -17 -16 -13 -17 -12 -4 4 13 16 21 21 21 13z m26 -26 c0 -22
-22 -35 -32 -18 -4 6 -3 8 3 5 6 -4 13 2 16 13 7 26 13 26 13 0z m41 -36 c-8
-8 -48 -13 -43 -6 2 4 14 8 26 9 12 1 20 0 17 -3z m43 0 c0 -8 -19 -13 -24 -6
-3 5 1 9 9 9 8 0 15 -2 15 -3z m93 -49 c-7 -21 -12 -19 -10 4 0 11 5 18 9 15
4 -3 5 -11 1 -19z m-27 -7 c0 -10 -1 -18 -3 -18 -1 0 -7 8 -12 18 -7 13 -6 19
2 19 7 0 13 -9 13 -19z m122 -1 c14 4 14 3 2 -5 -16 -12 -30 -7 -29 11 0 9 2
9 5 0 3 -7 13 -9 22 -6z m30 -29 c-6 -16 -38 -23 -38 -9 0 6 7 7 17 4 11 -4
14 -3 9 5 -4 7 -2 12 4 12 7 0 10 -6 8 -12z m88 -3 c17 -16 14 -18 -10 -9 -9
3 -16 10 -16 15 0 13 9 11 26 -6z m70 -20 c-3 -9 0 -15 9 -15 7 0 17 -4 20
-10 4 -6 -2 -7 -17 -1 -13 4 -29 6 -35 4 -7 -3 -13 0 -13 7 0 6 4 9 9 6 5 -3
11 1 15 9 3 8 8 15 12 15 3 0 4 -7 0 -15z m87 -25 c3 -11 1 -18 -4 -14 -5 3
-9 12 -9 20 0 20 7 17 13 -6z"/>
<path d="M4077 4653 c-11 -11 -8 -23 6 -23 8 0 14 7 14 15 0 16 -9 19 -20 8z"/>
<path d="M3535 3131 c-3 -5 -2 -12 3 -15 5 -3 9 1 9 9 0 17 -3 19 -12 6z"/>
<path d="M3465 3116 c21 -15 35 -12 35 7 0 8 -3 8 -9 -2 -6 -9 -11 -10 -15 -2
-4 6 -12 11 -19 11 -6 0 -2 -6 8 -14z"/>
<path d="M4296 4727 c3 -10 9 -15 12 -12 3 3 0 11 -7 18 -10 9 -11 8 -5 -6z"/>
<path d="M3035 4710 c3 -5 8 -10 11 -10 2 0 4 5 4 10 0 6 -5 10 -11 10 -5 0
-7 -4 -4 -10z"/>
<path d="M4450 4700 c0 -5 5 -10 11 -10 5 0 7 5 4 10 -3 6 -8 10 -11 10 -2 0
-4 -4 -4 -10z"/>
<path d="M2920 4686 c7 -7 13 -7 20 0 6 6 3 10 -10 10 -13 0 -16 -4 -10 -10z"/>
<path d="M4336 4682 c-3 -4 4 -9 15 -9 23 -2 25 3 4 10 -8 4 -16 3 -19 -1z"/>
<path d="M4480 4680 c-9 -6 -10 -10 -3 -10 6 0 15 5 18 10 8 12 4 12 -15 0z"/>
<path d="M4536 4677 c3 -10 9 -15 12 -12 3 3 0 11 -7 18 -10 9 -11 8 -5 -6z"/>
<path d="M4565 4669 c-4 -6 -5 -12 -2 -15 2 -3 7 2 10 11 7 17 1 20 -8 4z"/>
<path d="M2756 4662 c-3 -5 1 -9 9 -9 8 0 12 4 9 9 -3 4 -7 8 -9 8 -2 0 -6 -4
-9 -8z"/>
<path d="M4610 4668 c0 -2 9 -11 19 -20 18 -15 20 -15 26 0 3 9 3 13 -1 10 -4
-4 -15 -3 -25 3 -11 5 -19 8 -19 7z"/>
<path d="M2640 4640 c-9 -6 -10 -10 -3 -10 6 0 15 5 18 10 8 12 4 12 -15 0z"/>
<path d="M2680 4640 c-9 -6 -10 -10 -3 -10 6 0 15 5 18 10 8 12 4 12 -15 0z"/>
<path d="M4350 4641 c0 -4 6 -8 13 -9 29 -3 65 -10 100 -20 20 -6 37 -8 37 -5
0 3 7 0 15 -7 9 -7 18 -10 22 -7 3 4 15 1 27 -5 16 -8 18 -8 10 1 -10 11 -43
21 -71 23 -7 1 -13 4 -13 8 0 5 -35 11 -82 13 -10 1 -18 4 -18 7 0 3 -9 6 -20
7 -11 1 -20 -2 -20 -6z"/>
<path d="M4670 4638 c0 -6 3 -8 7 -5 3 4 12 2 19 -4 8 -7 14 -6 20 2 4 7 3 9
-4 5 -6 -3 -13 -2 -17 4 -8 14 -25 13 -25 -2z"/>
<path d="M4558 4623 c7 -3 16 -2 19 1 4 3 -2 6 -13 5 -11 0 -14 -3 -6 -6z"/>
<path d="M4731 4626 c2 -2 15 -9 29 -15 24 -11 24 -11 6 3 -16 13 -49 24 -35
12z"/>
<path d="M2615 4599 c-4 -6 -5 -12 -2 -15 2 -3 7 2 10 11 7 17 1 20 -8 4z"/>
<path d="M2745 4600 c-3 -5 -1 -10 4 -10 6 0 11 5 11 10 0 6 -2 10 -4 10 -3 0
-8 -4 -11 -10z"/>
<path d="M2705 4590 c-3 -6 1 -7 9 -4 18 7 21 14 7 14 -6 0 -13 -4 -16 -10z"/>
<path d="M4810 4596 c0 -2 7 -7 16 -10 8 -3 12 -2 9 4 -6 10 -25 14 -25 6z"/>
<path d="M4590 4581 c0 -6 3 -10 8 -10 4 1 10 0 15 -1 4 -1 12 -4 17 -5 6 -1
11 -3 13 -5 1 -1 9 -3 17 -5 29 -7 90 -31 96 -38 10 -10 24 -9 24 2 0 10 -23
20 -60 28 -13 2 -27 8 -30 13 -3 5 -17 11 -30 14 -14 3 -35 8 -47 12 -14 4
-23 2 -23 -5z"/>
<path d="M4850 4580 c0 -5 5 -10 11 -10 5 0 7 5 4 10 -3 6 -8 10 -11 10 -2 0
-4 -4 -4 -10z"/>
<path d="M2638 4562 c4 -11 2 -13 -9 -6 -8 4 -20 9 -27 10 -10 2 -11 -1 -1
-12 6 -8 9 -18 5 -21 -4 -4 -11 -2 -15 6 -6 10 -10 9 -15 -4 -9 -24 -7 -32 4
-15 8 12 10 12 10 1 0 -10 3 -11 13 -2 8 6 17 8 21 4 4 -4 4 1 1 12 -7 20 -6
20 10 0 11 -12 15 -14 12 -5 -2 8 -1 22 4 31 5 10 3 16 -6 16 -7 0 -11 -7 -7
-15z"/>
<path d="M4730 4576 c0 -2 7 -7 16 -10 8 -3 12 -2 9 4 -6 10 -25 14 -25 6z"/>
<path d="M2500 4563 c0 -5 12 -9 27 -10 19 -1 22 1 12 8 -17 11 -39 12 -39 2z"/>
<path d="M2666 4554 c-10 -26 -7 -29 9 -8 15 19 15 19 9 -1 -5 -16 -4 -17 5
-5 15 20 14 30 -3 30 -8 0 -17 -7 -20 -16z"/>
<path d="M4770 4562 c0 -15 54 -32 64 -21 8 7 6 8 -6 4 -10 -4 -18 -3 -18 3 0
5 -9 12 -20 15 -11 3 -20 2 -20 -1z"/>
<path d="M2556 4545 c-9 -26 -7 -32 5 -12 6 10 9 21 6 23 -2 3 -7 -2 -11 -11z"/>
<path d="M2420 4546 c0 -2 8 -10 18 -17 15 -13 16 -12 3 4 -13 16 -21 21 -21
13z"/>
<path d="M4931 4547 c2 -1 13 -9 24 -17 19 -14 19 -14 6 3 -7 9 -18 17 -24 17
-6 0 -8 -1 -6 -3z"/>
<path d="M2461 4530 c0 -8 4 -22 9 -30 9 -13 11 -13 20 0 5 8 9 22 9 30 -1 11
-3 10 -6 -2 -2 -10 -8 -18 -13 -18 -5 0 -11 8 -13 18 -3 12 -5 13 -6 2z"/>
<path d="M2520 4525 c9 -10 9 -15 1 -15 -6 0 -11 -5 -11 -11 0 -8 4 -8 14 1
16 12 11 40 -6 40 -6 0 -5 -6 2 -15z"/>
<path d="M4844 4528 c-4 -6 -3 -8 4 -4 6 3 13 2 17 -4 4 -6 11 -8 16 -5 5 4 9
1 9 -5 0 -6 4 -9 9 -6 5 3 14 -1 21 -9 7 -8 16 -12 21 -9 5 3 9 0 9 -5 0 -6 9
-11 20 -11 11 0 20 -5 20 -11 0 -5 5 -7 10 -4 6 3 10 2 10 -2 0 -5 17 -17 37
-28 21 -11 45 -25 53 -32 29 -22 105 -79 115 -85 6 -4 11 2 12 12 2 17 -55 70
-74 70 -4 0 0 -5 10 -11 9 -5 17 -14 17 -19 0 -11 -63 25 -80 46 -17 20 -1 18
24 -3 l21 -18 -19 23 c-13 15 -26 20 -39 16 -12 -4 -17 -2 -13 4 3 6 1 14 -5
18 -8 4 -9 3 -5 -4 4 -7 2 -12 -3 -12 -6 0 -11 7 -11 15 0 9 -6 12 -17 8 -12
-5 -14 -3 -8 7 5 8 4 11 -2 7 -6 -4 -13 0 -17 8 -3 9 -12 12 -22 8 -11 -4 -15
-2 -11 4 4 6 -5 14 -21 19 -31 9 -32 9 -54 17 -39 15 -48 16 -54 5z m370 -193
c3 -8 2 -15 -3 -15 -5 0 -14 7 -21 15 -10 12 -10 15 3 15 8 0 17 -7 21 -15z"/>
<path d="M2373 4513 c0 -7 8 -20 17 -28 14 -13 17 -13 17 0 0 8 -4 12 -8 9 -4
-2 -10 0 -13 5 -4 5 4 11 16 13 22 3 22 4 -3 9 -17 4 -26 1 -26 -8z"/>
<path d="M4990 4516 c0 -3 9 -10 20 -16 11 -6 20 -8 20 -6 0 3 -9 10 -20 16
-11 6 -20 8 -20 6z"/>
<path d="M2306 4498 c3 -4 9 -8 15 -8 5 0 9 4 9 8 0 5 -7 9 -15 9 -8 0 -12 -4
-9 -9z"/>
<path d="M2426 4494 c-4 -9 -4 -19 -1 -22 3 -3 5 0 5 7 0 7 7 11 14 8 10 -4
13 -1 9 9 -7 19 -19 18 -27 -2z"/>
<path d="M2338 4489 c-4 -9 2 -21 15 -29 19 -11 20 -11 11 1 -6 8 -13 21 -16
28 -4 13 -5 13 -10 0z"/>
<path d="M2276 4475 c4 -8 8 -15 10 -15 2 0 4 7 4 15 0 8 -4 15 -10 15 -5 0
-7 -7 -4 -15z"/>
<path d="M2360 4486 c0 -2 8 -10 18 -17 15 -13 16 -12 3 4 -13 16 -21 21 -21
13z"/>
<path d="M2231 4473 c-1 -17 19 -27 31 -15 6 6 6 12 -3 17 -8 5 -10 4 -5 -3 4
-7 3 -12 -3 -12 -5 0 -12 6 -14 13 -4 9 -6 9 -6 0z"/>
<path d="M2158 4453 c7 -3 16 -2 19 1 4 3 -2 6 -13 5 -11 0 -14 -3 -6 -6z"/>
<path d="M2196 4447 c3 -10 9 -15 12 -12 3 3 0 11 -7 18 -10 9 -11 8 -5 -6z"/>
<path d="M2296 4451 c-3 -4 6 -6 19 -3 14 2 25 6 25 8 0 8 -39 4 -44 -5z"/>
<path d="M2075 4419 c-4 -6 -5 -12 -2 -15 2 -3 7 2 10 11 7 17 1 20 -8 4z"/>
<path d="M2106 4416 c5 -13 4 -17 -4 -12 -8 5 -10 2 -5 -10 6 -15 7 -15 16 1
6 11 5 21 -3 28 -8 9 -9 7 -4 -7z"/>
<path d="M2228 4423 c6 -2 18 -2 25 0 6 3 1 5 -13 5 -14 0 -19 -2 -12 -5z"/>
<path d="M2147 4406 c-4 -10 -1 -13 9 -9 15 6 19 23 5 23 -5 0 -11 -7 -14 -14z"/>
<path d="M2185 4410 c-3 -6 1 -7 9 -4 18 7 21 14 7 14 -6 0 -13 -4 -16 -10z"/>
<path d="M1997 4393 c-10 -9 -9 -23 1 -23 5 0 9 7 9 15 0 17 -1 18 -10 8z"/>
<path d="M2036 4375 c-9 -26 -7 -32 5 -12 6 10 9 21 6 23 -2 3 -7 -2 -11 -11z"/>
<path d="M2072 4374 c-7 -8 -8 -14 -3 -14 10 0 25 19 20 25 -2 1 -10 -3 -17
-11z"/>
<path d="M1937 4339 c7 -7 15 -10 18 -7 3 3 -2 9 -12 12 -14 6 -15 5 -6 -5z"/>
<path d="M1970 4340 c0 -5 5 -10 11 -10 5 0 7 5 4 10 -3 6 -8 10 -11 10 -2 0
-4 -4 -4 -10z"/>
<path d="M1900 4320 c18 -12 30 -13 30 -2 0 4 -10 9 -22 9 -18 2 -20 0 -8 -7z"/>
<path d="M1775 4289 c-4 -6 -5 -12 -2 -15 2 -3 7 2 10 11 7 17 1 20 -8 4z"/>
<path d="M1825 4280 c-10 -11 -16 -22 -14 -24 2 -2 12 7 22 20 22 29 17 32 -8
4z"/>
<path d="M1855 4280 c-3 -6 1 -7 9 -4 18 7 21 14 7 14 -6 0 -13 -4 -16 -10z"/>
<path d="M5265 4250 c10 -11 20 -20 22 -20 2 0 -2 9 -9 20 -7 11 -17 20 -22
20 -5 0 -1 -9 9 -20z"/>
<path d="M1777 4249 c7 -7 15 -10 18 -7 3 3 -2 9 -12 12 -14 6 -15 5 -6 -5z"/>
<path d="M1630 4236 c0 -2 8 -10 18 -17 15 -13 16 -12 3 4 -13 16 -21 21 -21
13z"/>
<path d="M1681 4221 c-8 -5 -9 -11 -3 -15 5 -3 12 1 16 9 6 17 6 18 -13 6z"/>
<path d="M1626 4177 c3 -10 9 -15 12 -12 3 3 0 11 -7 18 -10 9 -11 8 -5 -6z"/>
<path d="M1495 4140 c-3 -5 -1 -10 4 -10 6 0 11 5 11 10 0 6 -2 10 -4 10 -3 0
-8 -4 -11 -10z"/>
<path d="M1553 4135 c0 -8 4 -12 9 -9 4 3 8 9 8 15 0 5 -4 9 -8 9 -5 0 -9 -7
-9 -15z"/>
<path d="M5490 3956 c5 -22 3 -39 -4 -47 -8 -9 -8 -10 2 -5 9 5 12 -5 13 -36
1 -24 1 -51 0 -60 -1 -10 2 -18 7 -18 10 0 8 83 -3 157 -3 24 -10 43 -15 43
-4 0 -4 -15 0 -34z"/>
<path d="M1233 3955 c0 -8 4 -12 9 -9 5 3 6 10 3 15 -9 13 -12 11 -12 -6z"/>
<path d="M5491 3684 c0 -11 3 -14 6 -6 3 7 2 16 -1 19 -3 4 -6 -2 -5 -13z"/>
<path d="M5460 3609 c-7 -11 -10 -23 -7 -25 2 -2 9 7 15 21 14 30 7 33 -8 4z"/>
<path d="M5415 3524 c-9 -15 -12 -23 -6 -20 11 7 35 46 28 46 -3 0 -12 -12
-22 -26z"/>
<path d="M1569 3493 c-13 -16 -12 -17 4 -4 16 13 21 21 13 21 -2 0 -10 -8 -17
-17z"/>
<path d="M5367 3455 c-15 -19 -25 -35 -21 -35 7 0 28 25 45 53 15 27 7 20 -24
-18z"/>
<path d="M1534 3435 c-9 -14 -15 -27 -13 -30 3 -2 12 10 21 26 21 36 15 39 -8
4z"/>
<path d="M2036 3398 c3 -5 10 -6 15 -3 13 9 11 12 -6 12 -8 0 -12 -4 -9 -9z"/>
<path d="M5715 3009 c-4 -6 -5 -12 -2 -15 2 -3 7 2 10 11 7 17 1 20 -8 4z"/>
<path d="M1510 2980 c0 -13 18 -22 24 -11 3 5 -1 11 -9 15 -8 3 -15 1 -15 -4z"/>
<path d="M5606 2978 c3 -5 10 -6 15 -3 13 9 11 12 -6 12 -8 0 -12 -4 -9 -9z"/>
<path d="M5646 2978 c3 -5 10 -6 15 -3 13 9 11 12 -6 12 -8 0 -12 -4 -9 -9z"/>
<path d="M5564 2962 c4 -3 14 -7 22 -8 9 -1 13 0 10 4 -4 3 -14 7 -22 8 -9 1
-13 0 -10 -4z"/>
<path d="M5473 2873 c0 -9 4 -10 14 -2 7 6 13 12 13 14 0 1 -6 2 -13 2 -8 0
-14 -6 -14 -14z"/>
<path d="M5335 2810 c-4 -6 -11 -8 -16 -5 -5 4 -9 2 -9 -4 0 -5 8 -9 18 -8 10
0 19 7 19 14 0 16 -4 16 -12 3z"/>
<path d="M5235 2770 c-4 -6 -11 -8 -16 -5 -5 4 -9 1 -9 -4 0 -16 16 -13 30 4
7 8 10 15 7 15 -3 0 -9 -5 -12 -10z"/>
<path d="M5293 2765 c0 -8 4 -12 9 -9 5 3 6 10 3 15 -9 13 -12 11 -12 -6z"/>
<path d="M5158 2718 c-9 -5 -6 -7 9 -5 12 2 25 6 28 8 8 9 -23 6 -37 -3z"/>
<path d="M5086 2707 c3 -10 9 -15 12 -12 3 3 0 11 -7 18 -10 9 -11 8 -5 -6z"/>
<path d="M5062 2684 c-7 -8 -8 -14 -3 -14 10 0 25 19 20 25 -2 1 -10 -3 -17
-11z"/>
<path d="M5011 2674 c0 -11 3 -14 6 -6 3 7 2 16 -1 19 -3 4 -6 -2 -5 -13z"/>
<path d="M4975 2660 c6 -10 4 -12 -8 -7 -8 3 -18 0 -20 -7 -4 -10 1 -12 14 -9
25 7 33 20 18 29 -8 5 -9 3 -4 -6z"/>
<path d="M5030 2661 c0 -6 4 -13 10 -16 6 -3 7 1 4 9 -7 18 -14 21 -14 7z"/>
<path d="M5080 2660 c-12 -7 -10 -9 7 -7 12 0 19 5 17 9 -6 10 -6 10 -24 -2z"/>
<path d="M4999 2633 c-13 -16 -12 -17 4 -4 9 7 17 15 17 17 0 8 -8 3 -21 -13z"/>
<path d="M4875 2630 c-3 -6 1 -7 9 -4 18 7 21 14 7 14 -6 0 -13 -4 -16 -10z"/>
<path d="M4835 2620 c-3 -5 -1 -10 4 -10 6 0 11 5 11 10 0 6 -2 10 -4 10 -3 0
-8 -4 -11 -10z"/>
<path d="M4910 2620 c0 -5 5 -10 10 -10 6 0 10 5 10 10 0 6 -4 10 -10 10 -5 0
-10 -4 -10 -10z"/>
<path d="M1975 2611 c-7 -13 26 -30 44 -23 8 2 11 0 8 -5 -9 -14 48 -44 69
-36 12 4 15 3 10 -5 -4 -7 -1 -12 8 -12 9 0 16 -5 16 -12 0 -6 3 -8 7 -5 3 4
17 0 31 -9 13 -8 26 -13 29 -11 3 3 19 -3 35 -13 17 -10 37 -16 44 -13 8 3 14
-1 14 -8 0 -7 3 -9 7 -6 3 4 12 2 20 -4 7 -6 13 -8 13 -4 0 4 7 2 15 -5 9 -7
19 -10 22 -6 10 10 -19 27 -34 21 -7 -2 -13 -1 -13 4 0 7 -76 37 -90 35 -11
-1 -27 22 -22 31 3 6 -2 4 -12 -4 -15 -13 -19 -13 -27 0 -5 8 -9 10 -9 6 0 -5
-12 1 -26 12 -15 12 -30 21 -35 21 -4 0 -31 14 -59 30 -57 34 -57 34 -65 21z"/>
<path d="M4782 2590 c-7 -11 -10 -20 -7 -20 3 0 14 9 25 20 12 12 15 20 7 20
-7 0 -18 -9 -25 -20z"/>
<path d="M4830 2591 c0 -7 -5 -9 -12 -5 -7 5 -8 3 -3 -5 5 -9 10 -10 18 -2 6
6 8 14 4 18 -4 3 -7 1 -7 -6z"/>
<path d="M4712 2583 c-7 -2 -17 -13 -22 -24 -9 -15 -8 -17 5 -13 9 4 13 9 11
12 -3 3 2 11 12 18 18 14 16 16 -6 7z"/>
<path d="M4746 2576 c5 -13 4 -17 -4 -12 -8 5 -10 2 -5 -10 6 -15 7 -15 16 1
6 11 5 21 -3 28 -8 9 -9 7 -4 -7z"/>
<path d="M4646 2561 c-3 -5 1 -14 9 -21 10 -9 15 -9 15 -1 0 6 -5 11 -11 11
-5 0 -7 5 -4 10 3 6 4 10 1 10 -3 0 -7 -4 -10 -9z"/>
<path d="M4611 2542 c-14 -27 -14 -29 5 -36 13 -5 14 -4 6 7 -9 10 -8 17 0 25
6 6 9 14 6 18 -4 3 -11 -3 -17 -14z"/>
<path d="M4715 2541 c-3 -5 -2 -12 3 -15 5 -3 9 1 9 9 0 17 -3 19 -12 6z"/>
<path d="M4796 2538 c3 -5 10 -6 15 -3 13 9 11 12 -6 12 -8 0 -12 -4 -9 -9z"/>
<path d="M4554 2531 c3 -4 -3 -16 -14 -26 -19 -17 -28 -9 -12 11 4 5 -3 -2
-15 -15 -12 -14 -19 -28 -16 -31 3 -3 8 1 10 8 3 6 9 10 13 7 9 -6 50 33 50
47 0 4 -5 8 -11 8 -5 0 -8 -4 -5 -9z"/>
<path d="M4495 2520 c-4 -6 -11 -8 -16 -5 -5 4 -6 -2 -2 -12 5 -15 4 -16 -8
-7 -17 13 -51 15 -43 2 3 -5 0 -15 -6 -23 -9 -11 -9 -15 -1 -15 6 0 11 5 11
11 0 8 5 7 15 -1 9 -7 18 -10 22 -6 3 3 1 6 -6 6 -7 0 -9 5 -6 10 4 6 10 8 15
5 4 -3 15 6 24 20 9 14 14 25 12 25 -3 0 -8 -5 -11 -10z m-35 -24 c0 -3 -4 -8
-10 -11 -5 -3 -10 -1 -10 4 0 6 5 11 10 11 6 0 10 -2 10 -4z"/>
<path d="M4635 2520 c3 -5 8 -10 11 -10 2 0 4 5 4 10 0 6 -5 10 -11 10 -5 0
-7 -4 -4 -10z"/>
<path d="M1970 2516 c0 -3 9 -10 20 -16 11 -6 20 -8 20 -6 0 3 -9 10 -20 16
-11 6 -20 8 -20 6z"/>
<path d="M4570 2498 c0 -6 3 -8 7 -5 3 4 13 1 22 -6 14 -11 14 -10 2 6 -15 20
-31 22 -31 5z"/>
<path d="M2315 2490 c-3 -5 -2 -10 4 -10 5 0 13 5 16 10 3 6 2 10 -4 10 -5 0
-13 -4 -16 -10z"/>
<path d="M4364 2492 c3 -5 -1 -15 -9 -22 -8 -7 -15 -20 -15 -29 0 -10 5 -7 13
9 7 14 21 25 31 25 11 0 20 6 22 13 1 7 0 8 -3 2 -3 -6 -11 -6 -25 1 -12 6
-18 7 -14 1z"/>
<path d="M4330 2479 c0 -6 -7 -8 -16 -5 -8 3 -12 2 -9 -4 3 -5 -9 -7 -29 -5
-33 4 -34 3 -30 -22 4 -22 3 -24 -10 -14 -8 7 -14 18 -12 24 1 7 1 9 -1 4 -3
-4 -10 -4 -16 0 -6 3 -2 -6 9 -20 24 -33 32 -33 46 -2 6 14 15 25 20 25 5 0 4
-9 -2 -21 -7 -11 -9 -24 -5 -27 3 -3 8 4 12 16 6 24 13 27 31 12 6 -6 10 -7 7
-3 -3 3 2 17 10 30 9 13 11 23 5 23 -5 0 -10 -5 -10 -11z"/>
<path d="M4557 2469 c7 -7 15 -10 18 -7 3 3 -2 9 -12 12 -14 6 -15 5 -6 -5z"/>
<path d="M2190 2458 c0 -6 3 -8 7 -5 3 4 11 3 17 -2 6 -4 25 -11 41 -14 29 -6
29 -6 5 4 -14 6 -33 15 -42 20 -23 12 -28 11 -28 -3z"/>
<path d="M2090 2456 c0 -2 7 -7 16 -10 8 -3 12 -2 9 4 -6 10 -25 14 -25 6z"/>
<path d="M4182 2440 c7 -11 16 -20 20 -20 5 0 3 9 -4 20 -7 11 -16 20 -20 20
-5 0 -3 -9 4 -20z"/>
<path d="M4365 2450 c-3 -6 1 -7 9 -4 18 7 21 14 7 14 -6 0 -13 -4 -16 -10z"/>
<path d="M2130 2440 c0 -5 5 -10 11 -10 5 0 7 5 4 10 -3 6 -8 10 -11 10 -2 0
-4 -4 -4 -10z"/>
<path d="M4136 2441 c-3 -4 -18 -7 -33 -5 -15 1 -33 -2 -40 -8 -7 -6 -13 -7
-13 -3 0 4 -6 3 -13 -4 -8 -6 -23 -9 -35 -6 -16 3 -19 0 -15 -12 5 -12 3 -14
-8 -7 -21 13 -42 14 -56 2 -10 -8 -13 -7 -13 3 0 9 -3 10 -8 3 -4 -5 -26 -9
-49 -9 -24 1 -43 -2 -43 -7 0 -4 -6 -7 -12 -5 -7 1 -12 -5 -10 -13 2 -12 0
-12 -10 1 -13 17 -53 20 -75 6 -7 -5 -13 -4 -13 2 0 7 -9 7 -22 2 -13 -4 -60
-7 -104 -6 -63 0 -81 -2 -77 -12 3 -7 1 -13 -5 -13 -6 0 -12 6 -14 12 -5 14
-158 19 -158 5 0 -5 -6 -5 -12 0 -13 8 -41 11 -185 15 -46 2 -83 6 -83 11 0 4
-4 7 -10 7 -14 0 -6 -43 10 -48 9 -3 10 0 4 9 -6 11 -3 10 11 -1 17 -14 18
-13 13 2 -5 11 -2 15 10 14 9 -2 18 -8 20 -14 2 -7 8 -12 13 -12 6 0 8 4 5 9
-3 5 1 11 9 14 12 5 12 2 3 -18 -9 -21 -14 -23 -26 -12 -10 7 -13 8 -9 1 4 -8
-3 -11 -23 -9 -16 1 -28 -1 -25 -5 2 -4 -7 -6 -20 -4 -14 1 -25 -2 -25 -8 0
-6 8 -7 18 -3 14 5 15 4 4 -7 -11 -11 -16 -9 -30 8 -11 13 -28 21 -47 20 -31
-1 -56 13 -48 27 2 4 -1 7 -6 7 -6 0 -11 -6 -11 -13 0 -13 -13 -14 -95 -4 -11
1 -26 6 -32 10 -8 5 -13 3 -13 -5 0 -10 -3 -9 -10 2 -5 8 -12 11 -17 7 -11
-12 15 -25 43 -21 13 1 24 -1 24 -6 0 -4 15 -8 33 -9 75 -3 97 -7 97 -18 0 -6
4 -14 9 -17 5 -4 7 4 5 16 -2 13 -2 17 2 11 3 -7 10 -13 15 -13 6 0 7 5 4 10
-3 6 -2 10 4 10 19 0 21 -19 4 -29 -17 -10 -17 -10 0 -11 9 0 17 5 17 10 0 6
5 10 11 10 5 0 7 -6 3 -12 -4 -7 -4 -10 1 -6 4 4 16 3 26 -3 14 -7 19 -7 17 2
-2 6 3 14 11 17 10 3 11 0 5 -9 -6 -11 -3 -10 11 1 17 13 18 13 13 -1 -4 -9
-1 -16 7 -16 7 0 11 6 9 12 -3 6 2 12 11 12 10 0 14 -6 10 -15 -4 -12 -1 -12
19 1 23 15 36 13 36 -5 0 -5 -5 -6 -12 -2 -7 5 -8 3 -3 -6 6 -10 11 -9 22 5 7
11 13 15 13 11 0 -5 6 -3 14 3 9 7 17 8 20 2 3 -5 1 -11 -6 -13 -8 -3 -6 -6 4
-10 19 -8 18 12 -1 36 -8 10 -9 16 -3 16 16 0 42 -41 35 -54 -4 -6 -2 -7 3 -3
5 5 9 13 9 18 0 8 9 12 18 8 1 -1 18 -2 37 -3 30 -2 35 1 35 20 0 18 -3 20
-17 13 -10 -5 -18 -12 -18 -15 0 -3 5 -2 12 2 7 4 8 3 4 -4 -10 -17 -29 -15
-23 3 9 21 -11 29 -30 13 -12 -9 -15 -9 -9 -1 4 8 2 11 -6 8 -7 -3 -19 5 -27
17 -13 21 -13 22 1 10 9 -7 18 -9 20 -5 3 4 3 1 1 -7 -2 -10 2 -8 12 4 8 11
15 14 15 7 0 -6 8 -11 18 -9 9 2 16 -2 14 -10 -2 -10 4 -9 26 2 30 15 56 16
69 1 4 -4 2 -5 -6 0 -10 6 -12 4 -6 -5 6 -9 4 -11 -5 -5 -9 6 -11 4 -5 -5 5
-9 4 -11 -4 -6 -6 4 -9 12 -6 17 4 5 2 9 -3 9 -14 0 -20 -22 -13 -40 4 -11 19
-16 48 -16 23 1 39 4 37 8 -3 5 0 8 5 8 6 0 11 -5 11 -11 0 -5 5 -7 10 -4 6 4
9 14 8 22 -2 9 2 18 8 20 7 2 10 -6 8 -22 -2 -19 1 -24 10 -16 6 5 27 8 46 6
27 -4 30 -3 15 4 -11 5 -16 10 -11 10 5 1 1 11 -10 22 -19 22 -19 22 2 11 12
-6 25 -8 29 -4 5 4 5 -1 2 -10 -4 -12 -2 -15 9 -11 9 3 14 0 12 -7 -2 -7 8
-14 22 -16 19 -3 22 -2 10 6 -14 9 -7 14 13 11 4 -1 2 9 -4 21 -11 20 -10 21
3 11 8 -7 18 -9 23 -5 4 4 4 -3 1 -15 -5 -15 -3 -23 4 -23 6 0 9 4 6 8 -2 4 4
14 16 21 18 11 19 10 14 -11 -3 -13 -3 -17 0 -10 3 6 10 12 15 12 6 0 7 -6 3
-12 -5 -9 -2 -9 9 1 9 7 17 10 17 5 0 -5 4 -3 9 5 11 16 39 23 55 13 24 -14
47 -12 44 4 -2 10 3 19 10 21 7 3 12 1 11 -4 -3 -20 2 -37 9 -28 4 6 13 10 20
10 6 0 12 4 11 9 -1 12 53 46 63 40 14 -9 9 -24 -6 -18 -9 3 -19 -4 -26 -18
-10 -21 -10 -21 3 -5 15 17 33 24 23 8 -4 -5 2 -8 11 -6 12 1 17 9 14 21 -3
18 -2 18 18 0 22 -20 22 -20 15 0 -7 18 -7 18 16 -1 13 -11 20 -15 17 -9 -4 7
0 14 7 17 8 3 17 1 20 -6 3 -9 5 -9 5 0 1 6 -4 15 -10 18 -6 5 -4 12 8 21 23
17 39 18 26 2 -12 -15 -13 -49 -2 -42 5 2 5 12 2 21 -5 12 -3 14 8 7 24 -15
55 -11 56 8 2 19 -32 44 -41 29z m34 -21 c0 -11 -30 -21 -41 -14 -15 9 10 34
27 27 8 -3 14 -9 14 -13z m-93 -1 c-9 -6 -15 -14 -12 -19 3 -4 -2 -10 -10 -14
-8 -3 -17 -1 -20 4 -8 13 4 32 15 25 5 -3 11 -1 15 5 3 5 12 10 18 10 7 0 4
-5 -6 -11z m-62 -19 c3 -5 1 -10 -4 -10 -6 0 -11 5 -11 10 0 6 2 10 4 10 3 0
8 -4 11 -10z m-165 -19 c0 -6 -5 -13 -10 -16 -6 -4 -8 -10 -5 -15 3 -4 -2 -7
-11 -6 -9 1 -21 11 -26 21 -6 10 -6 15 -1 12 5 -3 15 -2 23 4 19 11 30 11 30
0z m40 -5 c0 -6 5 -4 10 4 7 12 9 10 7 -7 -1 -14 -7 -21 -19 -20 -9 1 -15 3
-13 6 3 2 0 9 -5 16 -7 8 -5 12 5 12 8 0 15 -5 15 -11z m-118 -15 c7 -7 9 -11
3 -10 -5 2 -20 -2 -31 -9 -18 -9 -24 -9 -34 3 -6 8 -9 18 -6 23 8 13 54 8 68
-7z m-624 -2 c-2 -6 3 -14 10 -16 7 -3 10 1 6 11 -4 10 0 14 15 13 11 0 18 -3
16 -6 -3 -2 10 -15 27 -28 18 -12 27 -23 21 -23 -6 0 -16 7 -23 15 -15 18 -35
15 -35 -5 0 -19 -35 -21 -42 -3 -5 13 -7 13 -15 -1 -6 -11 -14 -14 -21 -8 -7
5 -24 8 -40 7 -15 -1 -25 1 -21 4 3 3 19 7 35 7 44 2 49 3 48 12 -3 18 2 32
11 32 6 0 9 -5 8 -11z m182 1 c0 -5 -5 -10 -11 -10 -5 0 -7 5 -4 10 3 6 8 10
11 10 2 0 4 -4 4 -10z m107 -3 c-1 -5 4 -12 11 -14 8 -3 10 2 6 14 -5 14 -4
15 4 3 7 -9 7 -19 2 -26 -6 -6 -8 -13 -5 -15 2 -3 -4 -5 -13 -6 -9 -1 -29 -4
-43 -7 -19 -4 -31 -1 -40 12 -11 14 -11 15 1 5 11 -10 17 -9 32 4 12 11 15 20
8 28 -6 8 -2 11 15 11 13 0 23 -4 22 -9z m96 -40 c-3 -4 -11 -3 -18 3 -10 8
-14 7 -18 -2 -3 -7 -4 -2 -2 12 2 14 4 29 4 34 1 4 10 -2 20 -15 11 -13 17
-28 14 -32z m81 37 c3 -7 -2 -20 -10 -31 -9 -10 -13 -13 -10 -7 6 13 -28 47
-37 37 -4 -3 -7 -2 -7 4 0 14 59 11 64 -3z m76 5 c0 -13 -18 -20 -25 -9 -4 6
-10 8 -15 5 -5 -3 -11 -2 -13 2 -3 5 8 9 24 9 16 1 29 -2 29 -7z m-408 -36
c-6 -2 -9 -10 -6 -15 4 -7 2 -8 -5 -4 -13 9 -5 26 12 25 9 0 8 -2 -1 -6z"/>
<path d="M3819 2363 c-13 -16 -12 -17 4 -4 16 13 21 21 13 21 -2 0 -10 -8 -17
-17z"/>
<path d="M3714 2360 c2 -16 20 -14 24 2 3 10 2 10 -6 -1 -7 -9 -11 -10 -15 -2
-4 7 -5 8 -3 1z"/>
<path d="M3174 2352 c10 -17 -13 -25 -31 -10 -15 12 -15 11 -3 -8 7 -11 19
-21 26 -21 8 0 12 3 9 5 -3 3 0 11 6 18 7 8 6 14 -2 20 -7 4 -9 3 -5 -4z"/>
<path d="M3412 2356 c4 -5 3 -15 -4 -23 -6 -7 -8 -16 -4 -20 3 -3 6 -1 6 6 0
7 4 10 9 6 18 -10 21 13 3 26 -9 7 -14 9 -10 5z"/>
<path d="M3500 2346 c0 -2 8 -10 18 -17 15 -13 16 -12 3 4 -13 16 -21 21 -21
13z"/>
<path d="M3587 2349 c7 -7 15 -10 18 -7 3 3 -2 9 -12 12 -14 6 -15 5 -6 -5z"/>
<path d="M4408 2443 c6 -2 9 -10 6 -15 -4 -7 -2 -8 5 -4 13 9 5 26 -12 25 -9
0 -8 -2 1 -6z"/>
<path d="M2200 2411 c40 -21 107 -39 77 -21 -9 6 -26 13 -37 15 -10 2 -28 8
-39 14 -11 6 -23 11 -28 11 -4 -1 8 -9 27 -19z"/>
<path d="M2310 2420 c0 -5 5 -10 10 -10 6 0 10 5 10 10 0 6 -4 10 -10 10 -5 0
-10 -4 -10 -10z"/>
<path d="M4365 2420 c-3 -6 1 -7 9 -4 18 7 21 14 7 14 -6 0 -13 -4 -16 -10z"/>
<path d="M2939 2408 c-13 -50 -6 -63 35 -58 10 1 15 -3 12 -8 -3 -6 2 -9 11
-8 10 2 17 6 16 9 -2 4 -4 9 -4 12 -1 3 -3 10 -4 15 -1 6 -3 15 -4 21 0 6 -8
9 -16 5 -8 -3 -15 -1 -15 4 0 8 -29 15 -31 8z m41 -28 c5 9 9 9 14 1 6 -10 0
-13 -20 -10 -4 0 -10 -5 -14 -11 -4 -7 -7 0 -7 15 0 24 1 25 9 10 8 -13 12
-14 18 -5z"/>
<path d="M4198 2403 c7 -3 16 -2 19 1 4 3 -2 6 -13 5 -11 0 -14 -3 -6 -6z"/>
<path d="M4440 2400 c-9 -6 -10 -10 -3 -10 6 0 15 5 18 10 8 12 4 12 -15 0z"/>
<path d="M2357 2369 c4 -13 8 -18 11 -10 2 7 -1 18 -6 23 -8 8 -9 4 -5 -13z"/>
<path d="M2435 2380 c27 -12 43 -12 25 0 -8 5 -22 9 -30 9 -10 0 -8 -3 5 -9z"/>
<path d="M4315 2381 c-3 -5 -2 -12 3 -15 5 -3 9 1 9 9 0 17 -3 19 -12 6z"/>
<path d="M2330 2370 c0 -5 5 -10 11 -10 5 0 7 5 4 10 -3 6 -8 10 -11 10 -2 0
-4 -4 -4 -10z"/>
<path d="M2385 2360 c-7 -12 19 -24 37 -17 7 3 3 6 -10 6 -13 1 -20 5 -17 11
3 6 4 10 1 10 -3 0 -8 -5 -11 -10z"/>
<path d="M2905 2360 c3 -5 8 -10 11 -10 2 0 4 5 4 10 0 6 -5 10 -11 10 -5 0
-7 -4 -4 -10z"/>
<path d="M3066 2353 c-6 -14 -5 -15 5 -6 7 7 10 15 7 18 -3 3 -9 -2 -12 -12z"/>
<path d="M2475 2341 c-3 -5 -2 -12 3 -15 5 -3 9 1 9 9 0 17 -3 19 -12 6z"/>
<path d="M2627 2339 c7 -7 15 -10 18 -7 3 3 -2 9 -12 12 -14 6 -15 5 -6 -5z"/>
<path d="M4155 2340 c3 -5 8 -10 11 -10 2 0 4 5 4 10 0 6 -5 10 -11 10 -5 0
-7 -4 -4 -10z"/>
<path d="M2536 2327 c3 -10 9 -15 12 -12 3 3 0 11 -7 18 -10 9 -11 8 -5 -6z"/>
<path d="M3995 2320 c-3 -5 -1 -10 4 -10 6 0 11 5 11 10 0 6 -2 10 -4 10 -3 0
-8 -4 -11 -10z"/>
<path d="M2824 2311 c9 -14 43 -19 57 -9 11 8 11 9 -1 5 -8 -2 -25 0 -38 4
-13 5 -21 5 -18 0z"/>
</g>
</svg>
